<?xml version="1.0" encoding="utf-8"?>
<svg viewBox="30.064 39.786 431.549 393.57" width="431.549" height="393.57" xmlns="http://www.w3.org/2000/svg">
  <path style="stroke: rgb(0, 0, 0);" d="M 35.709 70.567 L 30.064 208.899 L 74.293 208.899 L 63 143.968 C 63 143.968 120.563 212.841 122.284 213.604 C 124.588 214.626 162.858 176.904 162.858 176.904 L 74.292 131.734 C 74.292 131.734 146.381 101.315 173.101 40.455 C 169.827 38.748 134.282 40.534 107.228 43.278 C 101.789 91.447 59.236 117.619 59.236 117.619 L 55.471 65.862 L 35.709 70.567 Z"/>
  <path style="stroke: rgb(0, 0, 0);" d="M 124.209 185.125 C 136.938 153.303 146.775 114.865 150.316 86.233 L 195.412 168.512 L 185.127 90.189 L 198.586 89.265 L 219.146 198.575 L 170.887 200.157 L 155.854 123.417 C 155.854 123.417 156.455 155.229 151.9 183.544 L 124.209 185.125 Z"/>
  <path style="stroke: rgb(0, 0, 0);" d="M 218.355 190.665 L 227.057 75.158 L 243.671 74.367 L 254.747 191.456 L 218.355 190.665 Z"/>
  <path style="stroke: rgb(0, 0, 0);" d="M 252.374 82.279 L 277.69 82.279 L 297.469 162.975 L 310.127 79.114 L 321.203 79.114 L 311.709 209.652 L 265.032 209.652 L 252.374 82.279 Z"/>
  <path style="stroke: rgb(0, 0, 0);" d="M 368.596 91.673 L 329.201 90.982 L 306.17 198.086 L 409.809 200.159 L 395.87 162.845 L 333.444 171.137 L 337.687 127.604 L 357.687 128.295 L 360.111 117.93 L 338.899 117.93 L 340.11 102.728 L 367.991 102.728 L 368.596 91.673 Z"/>
  <path style="stroke: rgb(0, 0, 0);" d="M 439.855 101.417 C 441.397 98.304 451.61 77.971 451.15 77.871 C 407.121 59.403 383.69 80.69 383.4 100.992 C 383.113 121.03 432.118 141.169 424.17 160.211 C 417.048 177.274 386.642 151.586 375.61 147.836 C 376.159 148.259 356.836 182.639 354.431 186.183 C 364.586 193.021 415.389 215.715 442.961 187.02 C 476.874 151.725 412.28 112.216 412.767 103.088 C 413.352 92.127 428.526 88.216 439.855 101.417 Z" transform="matrix(0.989754, -0.142783, 0.142783, 0.989754, -15.281363, 59.023437)"/>
  <path style="stroke: rgb(0, 0, 0);" d="M 236.754 46.677 C 250.972 46.329 258.044 68.544 234.95 69.625 C 216.535 70.488 219.383 48.714 236.754 46.677 Z"/>
  <path style="stroke: rgb(0, 0, 0);" d="M 83.861 268.987 L 80.696 210.442 L 211.234 196.993 L 210.443 239.714 L 170.886 249.208 C 170.886 249.208 209.818 360.004 178.007 407.436 C 158.657 436.288 118.101 440.279 87.816 423.259 C 53.967 404.236 33.228 341.771 33.228 341.771 C 33.228 341.771 102.057 322.784 101.266 322.784 C 100.475 322.784 108.971 345.788 120.252 359.176 C 126.119 366.139 142.198 374.943 156.645 362.341 C 189.053 334.071 150.316 253.955 150.316 253.955 L 83.861 268.987 Z"/>
  <path style="stroke: rgb(0, 0, 0);" d="M 184.335 330.695 L 209.651 214.398 L 233.386 213.607 L 272.943 337.816 L 227.057 339.398 L 215.981 248.417 L 198.576 334.651 L 184.335 330.695 Z"/>
  <path style="stroke: rgb(0, 0, 0);" d="M 199.367 294.303 L 197.784 307.752 L 237.341 306.17 L 235.759 294.303 L 199.367 294.303 Z"/>
  <path style="stroke: rgb(0, 0, 0);" d="M 243.67 322.784 L 251.582 218.354 L 262.658 218.354 L 276.898 259.493 L 287.974 216.771 L 303.797 216.771 L 363.133 338.607 L 310.127 359.967 L 292.721 246.043 L 284.535 280.09 L 271.36 282.436 L 261.867 242.087 L 268.196 324.366 C 268.196 324.366 245.252 323.575 243.67 322.784 Z"/>
</svg>